<svg width="28" height="32" viewBox="0 0 28 32" fill="none" xmlns="http://www.w3.org/2000/svg">
<path d="M0 13.0352V7.72076V6.9441C0 5.83584 0.460322 4.77775 1.27189 4.02291L4.68394 0.853014C5.27297 0.305428 6.04963 0 6.85465 0H20.6992C21.5479 0 22.3682 0.301065 23.0139 0.84647L26.5198 3.80911C27.327 4.49196 27.7917 5.49332 27.7917 6.54923V13.0352L18.5634 21.3297L12.3502 21.4737L21.3646 7.46769H6.46196L0 13.0352Z" fill="#CC9900"/>
<path d="M27.7939 18.9648V24.2792V25.0558C27.7939 26.1641 27.3335 27.2222 26.522 27.977L23.1099 31.1469C22.5209 31.6945 21.7442 31.9999 20.9392 31.9999H7.09465C6.246 31.9999 5.4257 31.6989 4.77994 31.1535L1.27408 28.1908C0.466883 27.508 0.00219727 26.5066 0.00219727 25.4507V18.9648L9.23045 10.6702L15.4437 10.5262L6.42925 24.5322H21.3319L27.7939 18.9648Z" fill="#CC9900"/>
</svg>
